<?xml version="1.0" standalone="no"?>
<!DOCTYPE svg PUBLIC "-//W3C//DTD SVG 20010904//EN"
 "http://www.w3.org/TR/2001/REC-SVG-20010904/DTD/svg10.dtd">
<svg version="1.0" xmlns="http://www.w3.org/2000/svg"
 width="300.000000pt" height="238.000000pt" viewBox="0 0 300.000000 238.000000"
 preserveAspectRatio="xMidYMid meet">
<metadata>
Created by potrace 1.10, written by Peter Selinger 2001-2011
</metadata>
<g transform="translate(0.000000,238.000000) scale(0.100000,-0.100000)"
fill="#000000" stroke="none">
<path d="M1212 1885 c-125 -20 -270 -118 -343 -233 -16 -25 -39 -75 -51 -111
-21 -60 -23 -84 -23 -251 0 -150 3 -194 18 -233 48 -134 120 -224 228 -288
115 -68 132 -72 439 -78 269 -6 276 -7 330 -32 62 -29 130 -92 154 -143 l16
-35 78 32 c42 17 78 32 80 33 7 4 -31 70 -68 119 -36 48 -130 126 -130 107 0
-5 24 -35 53 -68 70 -78 97 -114 97 -128 0 -13 -61 -46 -84 -46 -7 0 -30 22
-52 49 -41 51 -100 95 -163 120 -26 10 -111 16 -311 21 -151 4 -286 10 -300
13 -60 15 -168 79 -217 127 -54 54 -114 161 -134 240 -7 26 -11 112 -10 205 1
150 3 165 30 242 44 125 128 214 255 274 35 16 87 33 115 38 83 13 560 6 606
-9 136 -44 244 -131 299 -241 50 -99 58 -154 54 -353 l-3 -173 -42 -84 c-29
-59 -60 -102 -102 -144 -34 -33 -61 -63 -61 -67 0 -41 143 102 182 182 51 103
60 165 56 354 -4 149 -7 179 -27 231 -54 139 -161 248 -303 307 -49 21 -73 23
-326 28 -167 3 -299 1 -340 -5z"/>
<path d="M1217 1739 c-108 -26 -216 -120 -252 -220 -25 -70 -24 -60 -25 -231
-2 -137 0 -153 25 -217 48 -127 161 -214 298 -231 95 -11 512 -6 528 6 8 6 25
14 39 17 77 19 182 126 215 223 22 62 31 247 16 339 -23 149 -131 279 -260
312 -41 10 -542 13 -584 2z m527 -19 c119 -19 207 -83 258 -188 l33 -67 0
-175 c0 -159 -2 -179 -22 -222 -32 -71 -103 -141 -176 -174 l-62 -29 -275 0
-275 0 -63 29 c-74 34 -132 94 -171 176 -25 53 -26 62 -26 225 0 190 9 224 79
310 40 49 138 104 204 115 68 11 427 12 496 0z"/>
<path d="M1317 1360 c3 -191 8 -214 55 -256 85 -76 255 -49 301 49 14 28 17
68 17 211 l0 176 -55 0 -55 0 0 -163 c0 -192 -5 -207 -74 -207 -72 0 -76 10
-76 203 l0 167 -57 0 -58 0 2 -180z m83 -5 c6 -187 13 -201 101 -212 28 -4 42
1 67 22 l32 27 0 149 c0 139 1 149 20 159 11 6 25 8 30 5 6 -4 10 -69 10 -157
0 -118 -3 -157 -16 -184 -27 -56 -117 -92 -187 -73 -39 10 -102 58 -106 81 -2
7 -5 80 -8 161 -5 154 1 182 36 175 14 -3 17 -27 21 -153z"/>
</g>
</svg>
