<?xml version="1.0" encoding="UTF-8"?>
<svg xmlns="http://www.w3.org/2000/svg" xmlns:xlink="http://www.w3.org/1999/xlink" width="400px" height="400px" viewBox="0 0 400 400" version="1.1">
<g id="surface1">
<path style=" stroke:none;fill-rule:nonzero;fill:rgb(0%,0%,0%);fill-opacity:1;" d="M 183.734375 87.867188 C 179.601562 89.199219 173.601562 91.867188 170.398438 93.734375 C 165.332031 96.667969 152.933594 108.667969 146.398438 117.066406 C 144.398438 119.601562 142.667969 120 134.667969 120 C 127.734375 120 125.332031 119.601562 125.332031 118.265625 C 125.332031 115.601562 120.933594 112 117.734375 112 C 114.265625 112 109.867188 115.734375 108.800781 119.601562 C 106.667969 126.667969 119.066406 132.933594 123.867188 127.199219 C 125.464844 125.332031 128.132812 124.535156 134.535156 124.398438 L 142.933594 124 L 142 128.398438 C 141.464844 130.667969 140.667969 136.535156 140.132812 141.199219 L 139.332031 149.601562 L 128.933594 149.601562 C 121.199219 149.601562 117.867188 149.066406 116.132812 147.464844 C 114.800781 146.265625 113.066406 145.332031 112.265625 145.332031 C 110 145.332031 105.332031 150.265625 105.332031 152.535156 C 105.332031 157.601562 115.199219 161.066406 116.800781 156.667969 C 117.867188 154 140 153.734375 140 156.265625 C 140 157.199219 140.398438 159.332031 140.800781 160.933594 C 141.601562 163.734375 141.199219 164 136.933594 164 C 134.265625 164 130.535156 163.332031 128.667969 162.398438 C 125.734375 161.066406 124.800781 161.199219 122.265625 163.734375 L 119.464844 166.667969 L 122.265625 169.601562 C 125.066406 172.265625 125.332031 172.265625 128.535156 170.265625 C 130.398438 168.933594 134.265625 168 137.066406 168 C 141.867188 168 142.265625 168.398438 145.601562 175.199219 C 147.601562 179.199219 148.800781 182.800781 148.398438 183.199219 C 146.265625 185.199219 139.464844 183.734375 136.535156 180.667969 C 132.265625 176 125.199219 176.132812 121.464844 180.800781 C 116.667969 186.800781 118.265625 193.066406 125.332031 196 C 128.667969 197.332031 129.867188 197.332031 132.667969 195.464844 C 134.398438 194.265625 136.535156 192.132812 137.332031 190.667969 C 138.535156 188.535156 140.132812 188 145.867188 188 C 151.867188 188 153.464844 188.667969 157.464844 192.132812 C 171.199219 204.535156 183.066406 209.601562 200 210.398438 C 210.535156 210.800781 214.132812 210.398438 221.332031 208 C 236 203.066406 249.601562 192.535156 255.199219 181.464844 C 257.332031 177.464844 257.734375 177.332031 265.867188 177.332031 C 273.601562 177.332031 274.800781 177.734375 278.398438 181.332031 C 282.800781 185.734375 284.800781 186.132812 289.867188 183.867188 C 296.933594 180.535156 297.199219 172.132812 290.398438 167.464844 C 286.132812 164.398438 282.265625 164.800781 278.667969 168.667969 C 276.132812 171.464844 274.265625 172 268.265625 172 L 261.066406 172 L 261.867188 167.867188 C 262.265625 165.601562 262.667969 162.667969 262.667969 161.332031 C 262.667969 158 269.867188 156.800781 274 159.464844 C 276.933594 161.332031 277.332031 161.332031 280 158.667969 C 282.265625 156.398438 282.398438 155.464844 281.199219 153.199219 C 280.132812 151.066406 278.933594 150.535156 276.265625 151.332031 C 274.265625 151.734375 270.667969 152.535156 268.398438 152.933594 C 264 153.601562 264 153.601562 264 148.132812 L 264 142.667969 L 273.332031 142.667969 C 281.332031 142.667969 282.933594 143.066406 285.867188 146 C 290.132812 150.265625 295.199219 150.265625 299.464844 145.867188 C 302.132812 143.332031 302.667969 141.734375 302.132812 138.933594 C 300.132812 130.933594 291.464844 128.132812 286.132812 134 C 283.332031 136.933594 282 137.332031 273.601562 137.332031 C 264.265625 137.332031 264.265625 137.332031 262.800781 133.199219 C 262 130.800781 261.332031 128.667969 261.332031 128.535156 C 261.332031 127.464844 274.132812 128.132812 275.867188 129.199219 C 278.535156 130.933594 282.667969 128.535156 282.667969 125.464844 C 282.667969 121.601562 279.332031 119.464844 276.132812 121.199219 C 274.667969 122 270.535156 122.667969 266.933594 122.667969 C 260.667969 122.667969 260.132812 122.398438 257.464844 118 L 254.800781 113.332031 L 262 113.332031 C 266.132812 113.332031 270.535156 114.132812 272 114.933594 C 275.734375 117.332031 279.199219 114.800781 279.734375 109.601562 C 280 106.535156 279.464844 105.066406 277.464844 104 C 274.535156 102.535156 269.332031 104.132812 269.332031 106.667969 C 269.332031 107.464844 265.199219 108 260.265625 108 C 251.601562 108 250.933594 107.734375 246.535156 103.199219 C 231.332031 87.464844 205.066406 81.066406 183.734375 87.867188 Z M 225.601562 98.398438 C 243.464844 107.199219 254.667969 124 255.734375 143.332031 C 257.066406 168 245.332031 188.535156 224.265625 198.398438 C 217.601562 201.601562 215.066406 202 202.667969 202 C 189.601562 202 188 201.734375 179.601562 197.734375 C 168.398438 192.398438 157.066406 181.199219 152.132812 170.800781 C 149.066406 164.132812 148.667969 161.734375 148.667969 148 C 148.667969 134.132812 149.066406 131.867188 152.265625 125.066406 C 156.398438 116 166.265625 105.199219 174.398438 100.398438 C 184 94.800781 190.265625 93.332031 204.132812 93.734375 C 215.332031 94 217.867188 94.535156 225.601562 98.398438 Z M 120 118 C 121.332031 119.601562 121.332031 120.398438 120 122 C 117.867188 124.535156 114.800781 124.535156 113.867188 122 C 113.066406 120 115.332031 116 117.332031 116 C 117.867188 116 119.066406 116.933594 120 118 Z M 296 138 C 297.332031 139.601562 297.332031 140.398438 296 142 C 295.066406 143.066406 293.601562 144 292.667969 144 C 290.132812 144 287.601562 140.265625 288.535156 138 C 289.464844 135.464844 293.867188 135.464844 296 138 Z M 289.332031 173.199219 C 290.265625 175.199219 290.132812 176.265625 288.535156 177.867188 C 285.867188 180.667969 284.933594 180.535156 282 177.332031 C 280 175.199219 280 174.398438 281.332031 172.667969 C 283.601562 169.867188 287.601562 170.132812 289.332031 173.199219 Z M 132.800781 184.800781 C 133.867188 189.199219 130.800781 192.667969 126.800781 191.332031 C 124.800781 190.800781 124 189.332031 124 186.800781 C 124 182.265625 124.933594 181.332031 128.800781 181.332031 C 131.066406 181.332031 132.132812 182.265625 132.800781 184.800781 Z M 132.800781 184.800781 "/>
<path style=" stroke:none;fill-rule:nonzero;fill:rgb(0%,0%,0%);fill-opacity:1;" d="M 192 98.132812 C 190.800781 98.535156 188.535156 101.464844 186.800781 104.800781 C 184.132812 109.734375 183.867188 111.066406 185.332031 112 C 186.398438 112.667969 188 112.535156 189.332031 111.601562 C 198.535156 104.667969 200 103.199219 200 100.398438 C 200 97.332031 197.601562 96.667969 192 98.132812 Z M 192 98.132812 "/>
<path style=" stroke:none;fill-rule:nonzero;fill:rgb(0%,0%,0%);fill-opacity:1;" d="M 216 99.867188 C 216 100.265625 216.800781 101.734375 217.867188 102.933594 C 219.199219 104.667969 219.867188 104.933594 221.066406 103.734375 C 223.464844 101.332031 223.066406 100.398438 219.332031 99.734375 C 217.464844 99.332031 216 99.464844 216 99.867188 Z M 216 99.867188 "/>
<path style=" stroke:none;fill-rule:nonzero;fill:rgb(0%,0%,0%);fill-opacity:1;" d="M 207.601562 103.199219 C 204.398438 105.734375 203.867188 107.066406 204.265625 111.601562 L 204.667969 117.066406 L 210.398438 112.132812 C 215.867188 107.464844 216 106.933594 214.535156 103.601562 C 212.535156 99.332031 212.398438 99.199219 207.601562 103.199219 Z M 207.601562 103.199219 "/>
<path style=" stroke:none;fill-rule:nonzero;fill:rgb(0%,0%,0%);fill-opacity:1;" d="M 173.332031 107.066406 C 169.332031 110.265625 164.265625 115.199219 162.132812 118 C 158.265625 122.933594 151.601562 137.464844 152.667969 138.398438 C 152.933594 138.667969 156.667969 136.132812 160.933594 132.667969 C 165.199219 129.199219 169.464844 126 170.265625 125.734375 C 171.332031 125.332031 171.734375 123.867188 171.199219 121.867188 C 170.265625 118.132812 173.332031 112.535156 177.199219 111.332031 C 178.535156 110.933594 180 109.601562 180.398438 108.265625 C 180.800781 107.066406 181.464844 104.933594 182 103.601562 C 183.464844 100 181.199219 100.933594 173.332031 107.066406 Z M 173.332031 107.066406 "/>
<path style=" stroke:none;fill-rule:nonzero;fill:rgb(0%,0%,0%);fill-opacity:1;" d="M 223.464844 107.332031 C 220.933594 109.199219 220.933594 109.464844 224.132812 118.933594 C 225.867188 124.265625 227.464844 128.933594 227.601562 129.199219 C 227.867188 129.601562 238.800781 122.132812 242.667969 118.933594 C 243.601562 118.132812 229.464844 105.332031 227.601562 105.332031 C 226.667969 105.332031 224.800781 106.265625 223.464844 107.332031 Z M 233.734375 118.132812 C 233.332031 119.199219 232.265625 120 231.332031 120 C 229.199219 120 227.464844 115.332031 228.667969 113.199219 C 230 111.199219 234.667969 115.734375 233.734375 118.132812 Z M 233.734375 118.132812 "/>
<path style=" stroke:none;fill-rule:nonzero;fill:rgb(0%,0%,0%);fill-opacity:1;" d="M 194.398438 113.601562 C 191.601562 115.734375 189.332031 118.535156 189.332031 119.601562 C 189.332031 120.667969 188.265625 123.332031 187.066406 125.464844 C 183.867188 130.933594 185.867188 131.734375 191.199219 126.933594 C 193.734375 124.667969 196.800781 122.398438 198 121.734375 C 199.601562 120.800781 200 118.933594 199.734375 115.066406 L 199.332031 109.601562 Z M 194.398438 113.601562 "/>
<path style=" stroke:none;fill-rule:nonzero;fill:rgb(0%,0%,0%);fill-opacity:1;" d="M 210.398438 117.867188 L 204 123.464844 L 204 147.867188 L 213.867188 140.535156 L 223.734375 133.199219 L 221.734375 125.601562 C 220.667969 121.464844 219.066406 116.667969 218.265625 115.199219 C 216.667969 112.265625 216.535156 112.398438 210.398438 117.867188 Z M 217.332031 128.933594 C 217.332031 132.667969 211.066406 137.332031 209.332031 134.800781 C 208 132.535156 210 123.867188 212.265625 122.535156 C 214.398438 121.066406 217.332031 124.667969 217.332031 128.933594 Z M 217.332031 128.933594 "/>
<path style=" stroke:none;fill-rule:nonzero;fill:rgb(0%,0%,0%);fill-opacity:1;" d="M 177.066406 116.132812 C 172 118.933594 175.601562 126 181.601562 125.066406 C 185.066406 124.667969 186.535156 119.601562 184 116.535156 C 182.132812 114.398438 180.265625 114.265625 177.066406 116.132812 Z M 177.066406 116.132812 "/>
<path style=" stroke:none;fill-rule:nonzero;fill:rgb(0%,0%,0%);fill-opacity:1;" d="M 236.398438 129.066406 C 228.535156 134.933594 228.132812 135.601562 228 140.933594 C 228 144.132812 228.265625 146.667969 228.800781 146.667969 C 229.601562 146.667969 249.332031 132.132812 249.332031 131.464844 C 249.332031 129.867188 246.265625 122.667969 245.601562 122.667969 C 245.066406 122.667969 240.933594 125.601562 236.398438 129.066406 Z M 236.398438 129.066406 "/>
<path style=" stroke:none;fill-rule:nonzero;fill:rgb(0%,0%,0%);fill-opacity:1;" d="M 191.734375 131.734375 L 184 138 L 184 150.535156 C 184 162.398438 184.132812 162.933594 186.398438 161.199219 C 187.867188 160.132812 191.332031 157.464844 194.398438 155.332031 L 199.867188 151.332031 L 200 138.265625 C 200 131.199219 199.867188 125.332031 199.734375 125.464844 C 199.464844 125.464844 195.867188 128.398438 191.734375 131.734375 Z M 194.933594 142.535156 C 195.066406 146.535156 192.800781 150.667969 190.535156 150.667969 C 188.535156 150.667969 189.199219 143.464844 191.464844 140.265625 C 194 136.535156 194.800781 137.066406 194.933594 142.535156 Z M 194.933594 142.535156 "/>
<path style=" stroke:none;fill-rule:nonzero;fill:rgb(0%,0%,0%);fill-opacity:1;" d="M 171.867188 129.734375 C 169.734375 131.332031 167.464844 142.667969 169.199219 142.667969 C 169.734375 142.667969 172.667969 140.800781 175.601562 138.535156 C 180.132812 135.066406 180.933594 133.734375 180.132812 131.464844 C 178.933594 128.132812 174.933594 127.332031 171.867188 129.734375 Z M 171.867188 129.734375 "/>
<path style=" stroke:none;fill-rule:nonzero;fill:rgb(0%,0%,0%);fill-opacity:1;" d="M 157.734375 140.800781 C 152.800781 144.933594 152 146.265625 152 150.800781 C 152 155.734375 152.132812 155.867188 154.667969 154.398438 C 156.132812 153.464844 157.332031 151.601562 157.332031 150.265625 C 157.332031 148.933594 158.933594 146.398438 160.800781 144.667969 C 162.800781 142.800781 164 140.398438 163.734375 138.800781 C 163.332031 136.265625 162.800781 136.535156 157.734375 140.800781 Z M 157.734375 140.800781 "/>
<path style=" stroke:none;fill-rule:nonzero;fill:rgb(0%,0%,0%);fill-opacity:1;" d="M 239.332031 144.933594 C 228.667969 153.332031 227.332031 155.734375 231.066406 159.601562 C 232.265625 160.800781 234.933594 159.464844 242.398438 153.734375 C 250 147.867188 252 145.601562 252 142.800781 C 252 136 250.265625 136.265625 239.332031 144.933594 Z M 239.332031 144.933594 "/>
<path style=" stroke:none;fill-rule:nonzero;fill:rgb(0%,0%,0%);fill-opacity:1;" d="M 213.734375 146.132812 L 204 153.464844 L 204 166.667969 L 211.066406 161.066406 C 214.933594 157.867188 219.464844 154.398438 221.066406 153.332031 C 223.734375 151.601562 224.132812 150.398438 223.734375 145.066406 L 223.332031 138.800781 Z M 213.734375 146.132812 "/>
<path style=" stroke:none;fill-rule:nonzero;fill:rgb(0%,0%,0%);fill-opacity:1;" d="M 175.734375 143.601562 C 174.398438 145.199219 173.867188 147.464844 174.265625 150.398438 C 174.800781 153.734375 174.265625 155.601562 172.132812 157.867188 C 169.734375 160.398438 169.199219 162.265625 169.601562 167.332031 L 170 173.601562 L 174.933594 169.734375 L 179.867188 166 L 180 153.601562 C 180 146.933594 179.464844 141.332031 178.933594 141.332031 C 178.265625 141.332031 176.800781 142.398438 175.734375 143.601562 Z M 175.734375 143.601562 "/>
<path style=" stroke:none;fill-rule:nonzero;fill:rgb(0%,0%,0%);fill-opacity:1;" d="M 161.464844 149.601562 C 159.867188 153.734375 162 157.332031 166 157.332031 C 170.132812 157.332031 172.667969 153.066406 170.667969 149.332031 C 168.667969 145.601562 162.933594 145.867188 161.464844 149.601562 Z M 161.464844 149.601562 "/>
<path style=" stroke:none;fill-rule:nonzero;fill:rgb(0%,0%,0%);fill-opacity:1;" d="M 246.667969 155.332031 C 244.933594 157.066406 241.601562 160 239.199219 161.601562 C 236.132812 163.734375 234.933594 165.332031 235.464844 166.933594 C 236.265625 169.601562 232.398438 176 230 176 C 228.535156 176 218.265625 194.667969 219.199219 195.601562 C 219.332031 195.867188 222.800781 194 226.667969 191.601562 C 235.464844 186.398438 244.132812 176 247.734375 166.398438 C 252.933594 152 252.667969 148.933594 246.667969 155.332031 Z M 246.667969 155.332031 "/>
<path style=" stroke:none;fill-rule:nonzero;fill:rgb(0%,0%,0%);fill-opacity:1;" d="M 214.667969 163.464844 C 210 167.464844 205.601562 170.667969 205.066406 170.667969 C 204.535156 170.667969 204 176.933594 204 184.667969 C 204 192.398438 204.535156 198.667969 205.199219 198.667969 C 211.066406 198.667969 217.601562 191.199219 221.464844 180.398438 C 222.667969 176.800781 222.535156 175.867188 220.132812 173.464844 C 216.398438 169.734375 216.667969 166.398438 220.800781 161.332031 C 226.398438 154.800781 224 155.601562 214.667969 163.464844 Z M 216 178.535156 C 216 182.398438 211.601562 189.867188 210.265625 188.398438 C 208.667969 186.933594 209.199219 175.332031 210.933594 173.601562 C 213.199219 171.332031 216 174.132812 216 178.535156 Z M 216 178.535156 "/>
<path style=" stroke:none;fill-rule:nonzero;fill:rgb(0%,0%,0%);fill-opacity:1;" d="M 155.332031 159.199219 C 152.933594 160.933594 152.933594 161.332031 157.066406 169.734375 C 162.667969 181.066406 165.332031 180.800781 164.265625 168.933594 C 163.332031 158.667969 160.398438 155.464844 155.332031 159.199219 Z M 155.332031 159.199219 "/>
<path style=" stroke:none;fill-rule:nonzero;fill:rgb(0%,0%,0%);fill-opacity:1;" d="M 191.066406 162.933594 C 184.398438 168 184 168.667969 184 174.132812 C 184 177.332031 184.398438 180 184.800781 180 C 185.199219 180 188.265625 177.867188 191.601562 175.332031 C 194.933594 172.800781 198.265625 170.667969 198.800781 170.667969 C 199.464844 170.667969 200 167.601562 200 164 C 200 160.265625 199.601562 157.332031 199.066406 157.464844 C 198.398438 157.464844 194.800781 159.867188 191.066406 162.933594 Z M 191.066406 162.933594 "/>
<path style=" stroke:none;fill-rule:nonzero;fill:rgb(0%,0%,0%);fill-opacity:1;" d="M 223.464844 163.066406 C 218.398438 166.667969 223.734375 175.734375 229.066406 172.535156 C 232.265625 170.398438 232.800781 165.199219 229.867188 163.066406 C 228.535156 162.132812 227.066406 161.332031 226.667969 161.332031 C 226.265625 161.332031 224.800781 162.132812 223.464844 163.066406 Z M 223.464844 163.066406 "/>
<path style=" stroke:none;fill-rule:nonzero;fill:rgb(0%,0%,0%);fill-opacity:1;" d="M 173.464844 176 C 169.066406 179.867188 167.867188 181.601562 168.535156 183.734375 C 170.265625 188.933594 172.800781 189.734375 176.667969 186.398438 C 179.734375 183.734375 180.132812 182.398438 179.734375 177.199219 L 179.332031 170.933594 Z M 173.464844 176 "/>
<path style=" stroke:none;fill-rule:nonzero;fill:rgb(0%,0%,0%);fill-opacity:1;" d="M 191.601562 180.933594 C 184.933594 186.398438 183.867188 187.734375 184.265625 191.199219 C 184.535156 193.332031 185.332031 195.332031 186.132812 195.601562 C 186.800781 195.867188 190.265625 193.867188 193.734375 191.199219 C 199.464844 186.667969 200 185.867188 200 180.535156 C 200 177.332031 199.867188 174.667969 199.734375 174.667969 C 199.464844 174.800781 195.867188 177.601562 191.601562 180.933594 Z M 191.601562 180.933594 "/>
<path style=" stroke:none;fill-rule:nonzero;fill:rgb(0%,0%,0%);fill-opacity:1;" d="M 196.132812 193.464844 C 193.332031 195.734375 193.199219 196.398438 194.800781 197.464844 C 198.265625 199.601562 200 198.800781 200 194.667969 C 200 190 200.265625 190 196.132812 193.464844 Z M 196.132812 193.464844 "/>
<path style=" stroke:none;fill-rule:nonzero;fill:rgb(0%,0%,0%);fill-opacity:1;" d="M 125.332031 134.398438 C 122 137.066406 122.800781 140.800781 126.933594 142.132812 C 130.535156 143.199219 133.867188 139.867188 132.800781 136.265625 C 131.601562 132.535156 128.667969 131.734375 125.332031 134.398438 Z M 125.332031 134.398438 "/>
<path style=" stroke:none;fill-rule:nonzero;fill:rgb(0%,0%,0%);fill-opacity:1;" d="M 144.398438 199.464844 C 143.464844 202 145.867188 204.667969 147.867188 203.464844 C 150 202.132812 149.601562 199.066406 147.332031 198.132812 C 146.132812 197.734375 144.933594 198.265625 144.398438 199.464844 Z M 144.398438 199.464844 "/>
<path style=" stroke:none;fill-rule:nonzero;fill:rgb(0%,0%,0%);fill-opacity:1;" d="M 256.265625 200.265625 C 257.199219 202.800781 261.332031 203.199219 261.332031 200.800781 C 261.332031 199.464844 260.132812 198.667969 258.535156 198.667969 C 256.933594 198.667969 256 199.332031 256.265625 200.265625 Z M 256.265625 200.265625 "/>
<path style=" stroke:none;fill-rule:nonzero;fill:rgb(0%,0%,0%);fill-opacity:1;" d="M 100.265625 239.464844 L 99.867188 256 L 107.464844 256 L 106.933594 246.535156 L 106.398438 237.066406 L 116.535156 247.464844 L 126.535156 258 L 126.667969 241.601562 L 126.667969 225.332031 L 123.332031 225.332031 C 120.132812 225.332031 120 225.601562 120 234 L 120 242.535156 L 110.398438 232.800781 L 100.667969 223.066406 Z M 100.265625 239.464844 "/>
<path style=" stroke:none;fill-rule:nonzero;fill:rgb(0%,0%,0%);fill-opacity:1;" d="M 202.667969 239.464844 L 202.667969 256 L 206 256 C 209.199219 256 209.332031 255.734375 209.332031 246.933594 L 209.332031 238 L 216 245.464844 C 219.601562 249.601562 223.867188 253.867188 225.601562 254.933594 L 228.667969 256.933594 L 228.265625 241.199219 L 227.867188 225.332031 L 224.398438 225.332031 C 220.933594 225.332031 220.933594 225.332031 221.601562 234 C 222 238.800781 222 242.667969 221.464844 242.535156 C 221.066406 242.398438 216.667969 238 211.734375 232.667969 L 202.667969 222.800781 Z M 202.667969 239.464844 "/>
<path style=" stroke:none;fill-rule:nonzero;fill:rgb(0%,0%,0%);fill-opacity:1;" d="M 233.332031 239.199219 L 233.332031 256 L 236.800781 256 C 240.265625 256 240.265625 255.867188 239.734375 247.332031 C 239.464844 242.535156 239.332031 238.667969 239.601562 238.667969 C 239.867188 238.667969 244.132812 243.066406 249.332031 248.265625 L 258.535156 258 L 258.667969 241.601562 L 258.667969 225.332031 L 255.332031 225.332031 C 252.265625 225.332031 252.132812 225.734375 251.734375 234 L 251.332031 242.667969 L 242.398438 232.667969 L 233.332031 222.535156 Z M 233.332031 239.199219 "/>
<path style=" stroke:none;fill-rule:nonzero;fill:rgb(0%,0%,0%);fill-opacity:1;" d="M 70.667969 237.464844 C 71.332031 248.667969 71.601562 249.867188 75.066406 252.800781 C 80.398438 257.332031 87.066406 257.066406 92.132812 252.132812 C 95.867188 248.398438 96 247.601562 96 236.800781 C 96 225.464844 96 225.332031 92.667969 225.332031 C 89.464844 225.332031 89.332031 225.601562 89.332031 234.800781 C 89.332031 245.601562 87.867188 249.332031 83.464844 249.332031 C 78.667969 249.332031 77.601562 246.933594 77.199219 235.601562 C 76.800781 225.601562 76.667969 225.332031 73.332031 225.332031 L 70 225.332031 Z M 70.667969 237.464844 "/>
<path style=" stroke:none;fill-rule:nonzero;fill:rgb(0%,0%,0%);fill-opacity:1;" d="M 131.332031 240.667969 L 131.332031 256 L 138.132812 256 L 138.132812 225.332031 L 131.332031 225.332031 Z M 131.332031 240.667969 "/>
<path style=" stroke:none;fill-rule:nonzero;fill:rgb(0%,0%,0%);fill-opacity:1;" d="M 149.332031 227.601562 C 140.265625 233.734375 139.734375 245.464844 148.132812 252.535156 C 152.800781 256.535156 158.265625 256.933594 164 254 C 168.535156 251.734375 168.933594 250.398438 166 248 C 164.398438 246.667969 163.601562 246.667969 162.132812 247.867188 C 159.066406 250.398438 153.199219 249.066406 150.265625 245.066406 C 144.800781 237.734375 152.265625 229.464844 161.332031 232.933594 C 164.535156 234.132812 165.601562 234 166.933594 232.398438 C 168.265625 230.667969 168 229.867188 165.464844 227.867188 C 161.601562 224.667969 153.734375 224.535156 149.332031 227.601562 Z M 149.332031 227.601562 "/>
<path style=" stroke:none;fill-rule:nonzero;fill:rgb(0%,0%,0%);fill-opacity:1;" d="M 177.867188 226.667969 C 166.535156 231.199219 166.800781 249.464844 178.265625 254.265625 C 186.535156 257.734375 194 254.535156 198.535156 245.734375 C 200.535156 241.867188 200.398438 239.199219 197.867188 233.867188 C 194.398438 226.535156 185.734375 223.464844 177.867188 226.667969 Z M 190.667969 234.667969 C 197.867188 241.867188 189.066406 252.800781 179.867188 247.867188 C 174.398438 245.066406 174 236.398438 179.199219 233.066406 C 182 231.199219 188 232 190.667969 234.667969 Z M 190.667969 234.667969 "/>
<path style=" stroke:none;fill-rule:nonzero;fill:rgb(0%,0%,0%);fill-opacity:1;" d="M 264 240.667969 L 264 256 L 274.667969 256 C 285.199219 256 285.332031 256 285.332031 252.667969 C 285.332031 249.464844 284.933594 249.332031 277.332031 249.332031 C 270.265625 249.332031 269.332031 249.066406 269.332031 246.667969 C 269.332031 244.265625 270.265625 244 276.800781 244 C 283.734375 244 284.132812 243.867188 283.734375 240.933594 C 283.332031 238.398438 282.398438 238 276.398438 237.601562 C 270.398438 237.199219 269.332031 236.800781 269.332031 234.535156 C 269.332031 232.265625 270.265625 232 277.332031 232 C 284.933594 232 285.332031 231.867188 285.332031 228.667969 C 285.332031 225.332031 285.199219 225.332031 274.667969 225.332031 L 264 225.332031 Z M 264 240.667969 "/>
<path style=" stroke:none;fill-rule:nonzero;fill:rgb(0%,0%,0%);fill-opacity:1;" d="M 294.398438 227.734375 C 286.535156 232.535156 284.933594 243.601562 290.933594 250.265625 C 296.800781 256.535156 307.601562 257.601562 312.535156 252.132812 C 314.398438 250 314.535156 249.464844 312.800781 248.132812 C 311.332031 246.933594 310.132812 246.800781 308.132812 247.867188 C 303.601562 250.398438 299.066406 249.601562 296.132812 245.867188 C 292.535156 241.332031 292.535156 238.132812 296.132812 234.535156 C 298.933594 231.734375 304.132812 231.464844 309.464844 233.867188 C 310.933594 234.535156 312 234 312.535156 232.398438 C 314.933594 226.398438 301.867188 223.066406 294.398438 227.734375 Z M 294.398438 227.734375 "/>
<path style=" stroke:none;fill-rule:nonzero;fill:rgb(0%,0%,0%);fill-opacity:1;" d="M 314.667969 228.667969 C 314.667969 231.464844 315.332031 232 318.667969 232 L 322.667969 232 L 322.667969 256 L 330.933594 256 L 329.867188 244 L 328.933594 232 L 333.867188 232 C 338.132812 232 338.667969 231.601562 338.667969 228.667969 C 338.667969 225.332031 338.535156 225.332031 326.667969 225.332031 C 314.800781 225.332031 314.667969 225.332031 314.667969 228.667969 Z M 314.667969 228.667969 "/>
</g>
</svg>
