 <svg  version="1.0" xmlns="http://www.w3.org/2000/svg"  width="300.000000pt" height="238.000000pt" viewBox="0 0 300.000000 238.000000"  preserveAspectRatio="xMidYMid meet">  <g transform="translate(0.000000,238.000000) scale(0.100000,-0.100000)" fill="#ffffff" stroke="none"> <path d="M1268 1895 c-2 -1 -25 -5 -53 -8 -142 -15 -310 -144 -371 -284 -14 -32 -30 -67 -37 -78 -19 -33 -20 -381 -2 -443 41 -135 114 -236 224 -307 112 -73 139 -78 451 -84 270 -6 276 -6 330 -32 62 -30 130 -94 154 -144 l16 -34 78 32 c42 17 79 32 80 34 12 6 -62 116 -111 167 -41 42 -54 61 -45 66 31 18 97 78 125 115 85 112 104 189 102 409 -1 155 -3 176 -26 240 -60 165 -167 270 -333 326 -59 21 -87 23 -322 25 -141 1 -258 1 -260 0z m617 -61 c71 -30 107 -56 177 -128 34 -35 90 -131 90 -153 0 -4 4 -13 9 -19 14 -17 29 -153 28 -262 0 -197 -44 -312 -162 -427 -40 -38 -75 -69 -79 -67 -18 5 -4 -13 47 -63 30 -30 68 -75 85 -101 29 -47 29 -48 10 -61 -11 -8 -24 -12 -29 -9 -5 4 -11 2 -13 -3 -1 -5 -15 -12 -29 -16 -21 -5 -29 -1 -43 20 -21 32 -39 50 -96 96 -79 64 -112 70 -409 74 -278 4 -279 4 -391 59 -72 34 -190 145 -190 177 0 10 -4 19 -8 19 -5 0 -17 19 -27 43 -9 23 -22 53 -28 67 -14 31 -17 365 -3 400 5 14 10 30 11 35 1 6 3 13 5 18 1 4 3 10 4 15 6 35 66 128 112 172 79 77 84 82 84 76 0 -4 17 4 38 17 20 13 51 27 67 31 17 4 46 11 65 16 19 5 163 7 320 6 l285 -3 70 -29z"/> <path d="M1260 1743 c-116 -17 -224 -91 -276 -190 -28 -51 -37 -104 -40 -234 -1 -77 -6 -144 -10 -151 -4 -7 -3 -8 4 -4 8 5 11 0 8 -16 -6 -43 93 -226 115 -212 5 3 9 0 9 -5 0 -26 143 -89 205 -90 157 -4 501 1 509 7 6 5 30 14 54 22 23 7 42 17 42 22 0 4 6 8 14 8 8 0 38 26 67 58 82 88 101 151 99 334 0 78 -5 160 -9 181 -20 85 -112 199 -186 231 -16 7 -43 19 -60 26 -22 10 -98 14 -275 15 -135 1 -256 0 -270 -2z m550 -39 c92 -36 158 -96 198 -182 26 -55 27 -63 27 -227 0 -167 -1 -171 -29 -233 -19 -40 -46 -78 -75 -104 -103 -90 -155 -101 -466 -97 l-240 4 -58 28 c-75 37 -137 99 -173 173 -29 58 -29 62 -29 229 0 167 0 171 29 228 35 70 87 127 144 156 80 41 142 48 392 45 197 -2 242 -5 280 -20z"/> <path d="M1317 1361 c1 -136 5 -186 16 -207 63 -122 256 -131 332 -16 23 36 24 44 26 217 l1 180 -59 3 -58 3 3 -165 c3 -155 2 -166 -18 -186 -24 -24 -76 -26 -108 -4 -21 15 -22 21 -22 185 l0 169 -57 0 -58 0 2 -179z m89 4 c1 -163 6 -188 42 -205 48 -23 91 -19 123 11 l29 27 0 157 0 156 33 -3 32 -3 0 -162 c0 -148 -2 -164 -21 -189 -35 -47 -70 -67 -126 -71 -66 -6 -118 15 -152 60 -26 33 -26 37 -26 201 l0 167 33 -3 32 -3 1 -140z"/> <path d="M1840 820 c19 -11 40 -19 45 -19 6 0 -6 8 -25 19 -19 11 -39 19 -45 19 -5 0 6 -8 25 -19z"/> </g> </svg> 